<?xml version="1.0" encoding="iso-8859-1"?>
<!-- Generator: Adobe Illustrator 16.0.0, SVG Export Plug-In . SVG Version: 6.00 Build 0)  -->
<!DOCTYPE svg PUBLIC "-//W3C//DTD SVG 1.1//EN" "http://www.w3.org/Graphics/SVG/1.1/DTD/svg11.dtd">
<svg version="1.1" id="Capa_1" xmlns="http://www.w3.org/2000/svg" xmlns:xlink="http://www.w3.org/1999/xlink" x="0px" y="0px"
	 width="349.371px" height="349.371px" viewBox="0 0 349.371 349.371" style="enable-background:new 0 0 349.371 349.371;"
	 xml:space="preserve">
		<path d="M214.905,27.574c5.585-1.588,9.565-6.776,9.565-12.655v-1.771c0-7.25-5.896-13.147-13.145-13.147h-73.285
			c-7.245,0-13.142,5.897-13.142,13.147v1.771c0,6.215,4.417,11.583,10.412,12.862c-26.367,71.862-26.367,75.447-26.367,76.991
			V335.05c0,7.896,6.419,14.321,14.321,14.321h102.838c7.896,0,14.321-6.425,14.321-14.321V104.766
			C240.426,103.241,240.426,99.656,214.905,27.574z"/>
</svg>
