<?xml version="1.0" standalone="no"?><!DOCTYPE svg PUBLIC "-//W3C//DTD SVG 1.1//EN" "http://www.w3.org/Graphics/SVG/1.1/DTD/svg11.dtd"><svg class="icon" height="512" viewBox="0 0 1155 1024" version="1.1" xmlns="http://www.w3.org/2000/svg"><path d="M955.684571 627.565714l165.5808-151.7568c27.560229-25.175771 36.849371-61.586286 24.385829-95.144228-12.726857-33.543314-44.792686-57.709714-83.938743-63.107657L848.515657 288.475429c-35.796114-2.735543-66.004114-22.337829-80.501028-49.664L671.5392 55.047314C654.394514 22.133029 616.740571 0.833829 575.926857 0.833829c-40.5504 0-78.014171 21.284571-95.232 54.213485L383.122286 240.581486c-14.657829 26.389943-44.178286 45.099886-78.994286 47.791543L90.5216 317.557029c-39.233829 5.3248-71.387429 29.564343-84.114286 63.195428-12.375771 33.3824-2.998857 69.807543 24.576 94.910172l167.862857 154.126628c0.175543 0 0 0.073143 0.175543 0.146286 16.091429 15.301486 25.980343 35.883886 25.980343 58.499657 0 3.613257-0.526629 6.9632-0.877714 10.386286l-39.409372 215.391085c-6.4512 35.6352 10.064457 70.773029 43.1104 91.7504 32.519314 20.465371 77.575314 22.440229 111.689143 5.646629L524.419657 923.062857a107.871086 107.871086 0 0 1 51.682743-12.990171c16.881371 0 32.694857 3.949714 46.577371 10.664228l189.688686 90.770286a117.291886 117.291886 0 0 0 51.156114 11.629714c21.825829 0 42.861714-5.866057 60.884115-17.188571 33.045943-20.977371 49.473829-56.1152 42.934857-91.765029l-37.639314-206.160457c0-0.936229 0.175543-1.828571 0-2.750171a81.115429 81.115429 0 0 1-1.9456-17.408c0-23.420343 10.605714-44.617143 27.7504-60.152686 0 0 0-0.073143 0.175542-0.146286" fill="#FFD800" /></svg>